<svg xmlns="http://www.w3.org/2000/svg" viewBox="0 0 128 128" role="img" aria-label="Kanade favicon">
  <defs>
    <radialGradient id="bgGlow" cx="32%" cy="22%" r="78%">
      <stop offset="0%" stop-color="#1f2937" />
      <stop offset="52%" stop-color="#070b14" />
      <stop offset="100%" stop-color="#020617" />
    </radialGradient>
    <linearGradient id="kFill" x1="30" y1="18" x2="94" y2="112" gradientUnits="userSpaceOnUse">
      <stop offset="0%" stop-color="#7dd3fc" />
      <stop offset="45%" stop-color="#38bdf8" />
      <stop offset="100%" stop-color="#2563eb" />
    </linearGradient>
    <filter id="softShadow" x="-30%" y="-30%" width="160%" height="160%">
      <feDropShadow dx="0" dy="8" stdDeviation="7" flood-color="#0284c7" flood-opacity="0.45" />
    </filter>
  </defs>

  <rect x="8" y="8" width="112" height="112" rx="30" fill="url(#bgGlow)" />
  <rect x="10.5" y="10.5" width="107" height="107" rx="27.5" fill="none" stroke="#1d4ed8" stroke-opacity="0.62" stroke-width="3" />
  <path d="M40 28h18v38l32-38h23L74 72l42 56H92L61 86l-3 3v39H40V28Z" fill="url(#kFill)" filter="url(#softShadow)" />
  <path d="M58 28v38l32-38h9L62 70l40 53H92L61 86l-3 3v34H47V28h11Z" fill="#bfdbfe" opacity="0.18" />
  <path d="M22 29c8-10 20-15 36-15" fill="none" stroke="#93c5fd" stroke-opacity="0.18" stroke-width="5" stroke-linecap="round" />
</svg>
